<?xml version="1.0" standalone="no"?>
<!DOCTYPE svg PUBLIC "-//W3C//DTD SVG 20010904//EN"
 "http://www.w3.org/TR/2001/REC-SVG-20010904/DTD/svg10.dtd">
<svg version="1.0" xmlns="http://www.w3.org/2000/svg"
 width="200.000000pt" height="200.000000pt" viewBox="0 0 200.000000 200.000000"
 preserveAspectRatio="xMidYMid meet">

<g transform="translate(0.000000,200.000000) scale(0.100000,-0.100000)"
fill="#000000" stroke="none">
<path d="M870 1878 c-527 -75 -855 -631 -666 -1132 31 -81 73 -158 115 -206
25 -29 30 -32 31 -15 0 16 4 14 20 -12 31 -52 88 -58 122 -12 31 41 17 79 -64
165 -95 103 -122 162 -126 281 -10 251 160 563 396 725 53 37 108 43 105 13
-2 -11 -8 -56 -14 -100 -17 -127 11 -317 61 -415 10 -19 54 -68 99 -108 107
-97 146 -172 146 -282 0 -109 -20 -143 -163 -274 -135 -124 -204 -170 -279
-188 -29 -7 -53 -16 -53 -19 0 -11 143 -68 217 -86 42 -10 113 -17 185 -17
133 -1 122 -7 182 99 51 89 70 164 70 275 0 156 -49 279 -170 426 -169 206
-190 259 -205 500 -5 91 -16 183 -23 205 -10 28 -11 39 -3 36 26 -8 47 -76 57
-192 26 -271 53 -346 176 -485 95 -108 171 -218 197 -284 25 -64 34 -228 18
-307 -19 -90 -72 -189 -142 -264 l-64 -68 39 7 c66 13 141 45 194 84 302 219
398 327 471 528 58 158 66 356 21 512 -76 267 -283 484 -545 571 -143 47 -265
59 -405 39z m257 -113 c32 -22 57 -114 88 -315 38 -246 57 -291 195 -443 104
-116 115 -140 114 -267 0 -91 -4 -117 -33 -200 -18 -52 -44 -115 -58 -140 -34
-57 -86 -129 -95 -130 -4 0 13 39 37 87 67 137 90 221 90 333 -1 118 -22 176
-99 275 -145 185 -171 250 -186 465 -14 191 -48 330 -80 330 -6 0 -10 5 -10
10 0 14 12 12 37 -5z m-93 -17 c16 -25 57 -163 55 -188 0 -8 -11 18 -24 57
-23 75 -47 119 -74 140 -14 11 -13 12 6 13 13 0 29 -10 37 -22z m-71 -28 c43
-47 67 -119 102 -311 13 -75 27 -145 30 -155 3 -11 -7 5 -21 35 -16 32 -38
113 -55 198 -31 156 -56 224 -88 245 -12 7 -21 16 -21 20 0 18 20 6 53 -32z
m299 3 c38 -41 46 -62 68 -170 41 -199 60 -237 195 -385 127 -139 170 -257
147 -404 -13 -80 -59 -203 -93 -244 l-20 -25 15 32 c30 62 66 187 72 252 12
126 -35 232 -171 381 -117 128 -145 187 -185 385 -11 54 -31 123 -45 152 -27
59 -22 67 17 26z m257 -214 c89 -117 151 -290 165 -459 6 -63 5 -61 -22 45
-49 193 -112 329 -215 468 -54 74 -56 77 -22 50 20 -15 62 -62 94 -104z"/>
<path d="M720 1625 c-14 -7 -55 -46 -92 -87 -173 -193 -260 -375 -260 -543 0
-92 16 -132 110 -274 86 -129 108 -187 92 -254 -11 -49 -24 -65 -71 -78 -32
-10 -42 -9 -64 5 -33 21 -32 6 1 -27 78 -78 273 -31 388 93 80 88 128 192 134
293 7 118 -24 233 -75 280 -16 14 -36 17 -111 15 -105 -3 -115 2 -119 65 -4
64 -5 71 -15 84 -6 7 -5 19 1 31 8 15 7 23 -4 32 -22 18 -19 33 15 65 27 26
30 35 30 90 0 52 6 73 36 129 41 78 42 101 4 81z"/>
</g>
</svg>
