<svg xmlns="http://www.w3.org/2000/svg" width="266.667" height="266.667" version="1.0" viewBox="0 0 200 200"><path d="M87 12.2C34.3 19.7 1.5 75.3 20.4 125.4c3.1 8.1 7.3 15.8 11.5 20.6 2.5 2.9 3 3.2 3.1 1.5 0-1.6.4-1.4 2 1.2 3.1 5.2 8.8 5.8 12.2 1.2 3.1-4.1 1.7-7.9-6.4-16.5-9.5-10.3-12.2-16.2-12.6-28.1-1-25.1 16-56.3 39.6-72.5 5.3-3.7 10.8-4.3 10.5-1.3-.2 1.1-.8 5.6-1.4 10C77.2 54.2 80 73.2 85 83c1 1.9 5.4 6.8 9.9 10.8 10.7 9.7 14.6 17.2 14.6 28.2 0 10.9-2 14.3-16.3 27.4-13.5 12.4-20.4 17-27.9 18.8-2.9.7-5.3 1.6-5.3 1.9 0 1.1 14.3 6.8 21.7 8.6 4.2 1 11.3 1.7 18.5 1.7 13.3.1 12.2.7 18.2-9.9 5.1-8.9 7-16.4 7-27.5 0-15.6-4.9-27.9-17-42.6-16.9-20.6-19-25.9-20.5-50-.5-9.1-1.6-18.3-2.3-20.5-1-2.8-1.1-3.9-.3-3.6 2.6.8 4.7 7.6 5.7 19.2 2.6 27.1 5.3 34.6 17.6 48.5 9.5 10.8 17.1 21.8 19.7 28.4 2.5 6.4 3.4 22.8 1.8 30.7-1.9 9-7.2 18.9-14.2 26.4l-6.4 6.8 3.9-.7c6.6-1.3 14.1-4.5 19.4-8.4 30.2-21.9 39.8-32.7 47.1-52.8 5.8-15.8 6.6-35.6 2.1-51.2-7.6-26.7-28.3-48.4-54.5-57.1-14.3-4.7-26.5-5.9-40.5-3.9zm25.7 11.3c3.2 2.2 5.7 11.4 8.8 31.5 3.8 24.6 5.7 29.1 19.5 44.3 10.4 11.6 11.5 14 11.4 26.7 0 9.1-.4 11.7-3.3 20-1.8 5.2-4.4 11.5-5.8 14-3.4 5.7-8.6 12.9-9.5 13-.4 0 1.3-3.9 3.7-8.7 6.7-13.7 9-22.1 9-33.3-.1-11.8-2.2-17.6-9.9-27.5C122.1 85 119.5 78.5 118 57c-1.4-19.1-4.8-33-8-33-.6 0-1-.5-1-1 0-1.4 1.2-1.2 3.7.5zm-9.3 1.7c1.6 2.5 5.7 16.3 5.5 18.8 0 .8-1.1-1.8-2.4-5.7-2.3-7.5-4.7-11.9-7.4-14-1.4-1.1-1.3-1.2.6-1.3 1.3 0 2.9 1 3.7 2.2zM96.3 28c4.3 4.7 6.7 11.9 10.2 31.1 1.3 7.5 2.7 14.5 3 15.5.3 1.1-.7-.5-2.1-3.5-1.6-3.2-3.8-11.3-5.5-19.8-3.1-15.6-5.6-22.4-8.8-24.5-1.2-.7-2.1-1.6-2.1-2 0-1.8 2-.6 5.3 3.2zm29.9-.3c3.8 4.1 4.6 6.2 6.8 17 4.1 19.9 6 23.7 19.5 38.5 12.7 13.9 17 25.7 14.7 40.4-1.3 8-5.9 20.3-9.3 24.4l-2 2.5 1.5-3.2c3-6.2 6.6-18.7 7.2-25.2 1.2-12.6-3.5-23.2-17.1-38.1C135.8 71.2 133 65.3 129 45.5c-1.1-5.4-3.1-12.3-4.5-15.2-2.7-5.9-2.2-6.7 1.7-2.6zm25.7 21.4c8.9 11.7 15.1 29 16.5 45.9.6 6.3.5 6.1-2.2-4.5-4.9-19.3-11.2-32.9-21.5-46.8-5.4-7.4-5.6-7.7-2.2-5 2 1.5 6.2 6.2 9.4 10.4z"/><path d="M72 37.5c-1.4.7-5.5 4.6-9.2 8.7-17.3 19.3-26 37.5-26 54.3 0 9.2 1.6 13.2 11 27.4 8.6 12.9 10.8 18.7 9.2 25.4-1.1 4.9-2.4 6.5-7.1 7.8-3.2 1-4.2.9-6.4-.5-3.3-2.1-3.2-.6.1 2.7 7.8 7.8 27.3 3.1 38.8-9.3 8-8.8 12.8-19.2 13.4-29.3.7-11.8-2.4-23.3-7.5-28-1.6-1.4-3.6-1.7-11.1-1.5-10.5.3-11.5-.2-11.9-6.5-.4-6.4-.5-7.1-1.5-8.4-.6-.7-.5-1.9.1-3.1.8-1.5.7-2.3-.4-3.2-2.2-1.8-1.9-3.3 1.5-6.5 2.7-2.6 3-3.5 3-9 0-5.2.6-7.3 3.6-12.9 4.1-7.8 4.2-10.1.4-8.1z"/></svg>
